<svg width="20" height="18" viewBox="0 0 20 18" fill="none" xmlns="http://www.w3.org/2000/svg">
<path d="M3.80248 17.8346C2.89189 17.8346 2.03626 17.4797 1.39275 16.8363C0.0642334 15.5077 0.0642334 13.3457 1.39275 12.0171L11.9274 1.48195C12.7761 0.632344 13.9058 0.165039 15.1067 0.165039C16.3079 0.165039 17.4375 0.632344 18.2862 1.48195C19.1358 2.33133 19.6036 3.46027 19.6036 4.66121C19.6036 5.86238 19.1363 6.99129 18.2869 7.84016L9.99384 16.1325C9.74486 16.3813 9.34166 16.3813 9.09279 16.1325C8.8438 15.8835 8.8438 15.4803 9.09279 15.2313L17.3857 6.93898C17.9944 6.33039 18.3292 5.52137 18.3292 4.66121C18.3292 3.80121 17.9937 2.99168 17.3851 2.38301C16.7764 1.77441 15.9674 1.43949 15.1067 1.43949C14.2462 1.43949 13.4372 1.77441 12.8285 2.38301L2.29392 12.9182C1.46255 13.7503 1.46255 15.1033 2.29392 15.9352C3.10037 16.7405 4.50443 16.7405 5.31084 15.9352L12.3847 8.86074C12.577 8.6684 12.6872 8.40215 12.6872 8.13074C12.6872 7.85555 12.5796 7.59613 12.3842 7.4007C11.9822 6.99871 11.3269 6.9975 10.9249 7.4007L6.09373 12.2324C5.8449 12.4814 5.4415 12.4814 5.19267 12.2324C4.94369 11.9835 4.94369 11.5802 5.19267 11.3314L10.0236 6.49969C10.9223 5.60109 12.3854 5.60109 13.2853 6.49969C13.7215 6.93586 13.9617 7.51531 13.9617 8.13078C13.9617 8.73809 13.7153 9.33242 13.2859 9.7618L6.21205 16.8363C5.56853 17.4797 4.71287 17.8346 3.80248 17.8346Z" fill="black" fill-opacity="0.5"/>
</svg>
